<?xml version="1.0" encoding="utf-8"?>
<!-- Generator: Adobe Illustrator 19.1.0, SVG Export Plug-In . SVG Version: 6.00 Build 0)  -->
<svg version="1.1" id="Layer_1" xmlns="http://www.w3.org/2000/svg" xmlns:xlink="http://www.w3.org/1999/xlink" x="0px" y="0px"
	 viewBox="-209 142.4 80.4 67.6" style="enable-background:new -209 142.4 80.4 67.6;" xml:space="preserve">
<style type="text/css">
	.st0{fill:#663399;}
</style>
<path class="st0" d="M-163.1,176.2c0,9.7,0.1,19.3,0,29c0,5.2-1.6,6.1-5.9,3.3c-7.1-4.6-14.2-9.2-21-14.2c-1.8-1.3-3.3-4.1-3.4-6.3
	c-0.4-7.8-0.4-15.7,0-23.5c0.1-2.2,1.6-5.1,3.4-6.4c6.9-5,14.1-9.7,21.4-14.4c3.7-2.4,5.5-1.5,5.5,3
	C-163,156.5-163.1,166.4-163.1,176.2z"/>
<path class="st0" d="M-128.6,176.4c0,12.3-5.3,22-15.3,29.2c-1.3,0.9-3.7,0.4-5.5,0.5c0.9-1.6,1.3-3.6,2.6-4.6
	c17.9-13.3,18.1-36.9,0.4-50.5c-1.1-0.9-1.4-2.9-2-4.4c1.5,0.2,3.5-0.2,4.6,0.6C-133.9,153.9-128.6,164.3-128.6,176.4z"/>
<path class="st0" d="M-197.8,176.2c0,3.5-0.4,7,0.1,10.5c0.7,5.7-2.8,5.7-6.7,5.9c-4.5,0.2-4.6-2.7-4.6-5.9c0.1-7.3,0.1-14.7,0-22
	c-0.1-3.8,1.6-5,5.1-4.8c3.2,0.2,6.5-0.1,6.1,4.8C-198,168.6-197.8,172.4-197.8,176.2z"/>
<path class="st0" d="M-154.7,157.5c2.3-4.4,4.5-2.3,6.4-0.9c13,9.3,12.8,30.7-0.5,39.9c-1.3,0.9-3.5,0.6-5.2,0.9
	c0.8-1.7,1.1-4,2.4-5.1c9.8-7.8,10.8-22.5,1.8-30.6C-151.4,160.2-153,158.9-154.7,157.5z"/>
<path class="st0" d="M-148.7,176.5c0.2,4.6-2,8-5.6,10.5c-0.9,0.6-2.6,0.2-3.9,0.2c0.2-1.2-0.1-2.7,0.6-3.5
	c5.3-7.6,5.3-7.5-0.2-14.6c-0.7-0.9-0.2-2.6-0.3-3.9c1.2,0,2.8-0.5,3.6,0.1C-150.7,168-148.4,171.7-148.7,176.5z"/>
</svg>
